<svg width="20" height="20" viewBox="0 0 20 20" fill="none" xmlns="http://www.w3.org/2000/svg">
<path d="M10 1C10.663 1 11.2989 1.26339 11.7678 1.73223C12.2366 2.20107 12.5 2.83696 12.5 3.5V4H7.5V3.5C7.5 2.83696 7.76339 2.20107 8.23223 1.73223C8.70107 1.26339 9.33696 1 10 1ZM13.5 4V3.5C13.5 2.57174 13.1313 1.6815 12.4749 1.02513C11.8185 0.368749 10.9283 0 10 0C9.07174 0 8.1815 0.368749 7.52513 1.02513C6.86875 1.6815 6.5 2.57174 6.5 3.5V4H3V14C3 14.5304 3.21071 15.0391 3.58579 15.4142C3.96086 15.7893 4.46957 16 5 16H15C15.5304 16 16.0391 15.7893 16.4142 15.4142C16.7893 15.0391 17 14.5304 17 14V4H13.5ZM4 5H16V14C16 14.2652 15.8946 14.5196 15.7071 14.7071C15.5196 14.8946 15.2652 15 15 15H5C4.73478 15 4.48043 14.8946 4.29289 14.7071C4.10536 14.5196 4 14.2652 4 14V5Z" fill="white"/>
</svg>
